<svg version="1" xmlns="http://www.w3.org/2000/svg" width="341.333" height="341.333" viewBox="0 0 256.000000 256.000000"><path d="M105.7 10C79 15.6 58 27.2 40.1 46.3 24.2 63.2 15.7 80.3 9.4 108c-1.1 4.5-1.4 30.4-.5 36 1.8 10.6 2.2 12.6 4.7 20.4 12.7 39.8 47 71.7 86.6 80.5 2.4.6 5.7 1.3 7.3 1.7 5.7 1.2 32.8 1.2 40-.1 19.7-3.5 36.1-10.4 51.3-21.5 25.4-18.5 43.5-48.2 48-78.8.9-6 .9-29.1 0-35.7-3.2-25.1-17.3-52-36.3-69.6-18.5-17.1-35.4-25.7-62-31.5-1.6-.3-10-.8-18.5-.9-12-.2-17.5.1-24.3 1.5z"/></svg>